<svg version="1.2"
  xmlns="http://www.w3.org/2000/svg" viewBox="0 0 360 180" width="360" height="180">
  <defs>
    <mask id="cut">
      <rect x="0" y="0" width="360" height="180" fill="white"/>
      <path d="m100.2 147.3l114.6-114.6" stroke="black" stroke-width="20" fill="none"/>
    </mask>
  </defs>
  <style>
    .a {
      fill:none;
      stroke:#0EA5E9;
      stroke-width:14
    }
  </style>
  <g mask="url(#cut)">
    <path d="m144.3 118.2q0 12.3-4.4 17.6-4.4 5.2-14.7 5.2h-15.4v-11h11.4q4.8 0 6.8-2.7 2-2.7 2-9.1v-41.6h-14.5v-11h28.8z"/>
    <path fill-rule="evenodd" d="m137.1 54.9c-4.1 0-7.5-3.4-7.5-7.5 0-4.2 3.4-7.6 7.5-7.6 4.2 0 7.6 3.4 7.6 7.6 0 4.1-3.4 7.5-7.6 7.5z"/>
    <path d="m201.4 67.3v12.5q-4-2.5-8.2-3.8-4.3-1.3-8.6-1.3-4.8 0-7.2 1.4-2.5 1.4-2.5 4.1 0 3.9 10.5 6.4l0.5 0.1 4.1 1q7.8 1.8 11.5 6 3.6 4.1 3.6 11.1 0 8.5-5.5 12.7-5.6 4.2-16.7 4.2-4.9 0-10.1-0.8-5.2-0.9-10.5-2.6v-12.5q4.7 2.7 9.6 4.1 4.9 1.4 9.5 1.4 5 0 7.6-1.4 2.6-1.5 2.6-4.3 0-2.7-1.8-4.2-1.8-1.5-8.7-3.1l-4-0.9q-8.2-1.9-11.9-5.8-3.8-4-3.8-10.6 0-7.9 5.7-12.3 5.7-4.4 16.1-4.4 4.6 0 9.2 0.8 4.6 0.7 9 2.2z"/>
  </g>
  <path fill-rule="evenodd" class="a" d="m98 45l-45 45 45 45"/>
  <path fill-rule="evenodd" class="a" d="m217 45l45 45-45 45"/>
  <path fill-rule="evenodd" class="a" d="m100.2 147.3l114.6-114.6"/>
</svg>